<svg version="1.1" id="Layer_1" xmlns="http://www.w3.org/2000/svg" xmlns:xlink="http://www.w3.org/1999/xlink" x="0px" y="0px"
	 width="100%" viewBox="0 0 500 500" enable-background="new 0 0 500 500" xml:space="preserve">
<path fill="#000000" opacity="1.000000" stroke="none" 
	d="
M232.000000,501.000000 
	C154.666687,501.000000 77.833366,501.000000 1.000041,501.000000 
	C1.000027,334.333405 1.000027,167.666779 1.000014,1.000131 
	C167.666565,1.000087 334.333130,1.000087 500.999756,1.000044 
	C500.999847,167.666519 500.999847,334.333038 500.999939,500.999786 
	C411.500000,501.000000 322.000000,501.000000 232.000000,501.000000 
M208.708496,361.096344 
	C213.193222,363.558777 211.419907,366.246460 208.125031,368.932373 
	C206.661163,368.932373 205.197296,368.932373 203.154297,368.932373 
	C204.045914,362.793121 201.032349,356.726257 204.824936,350.935669 
	C203.403595,351.028748 201.838654,351.131226 200.649811,351.209106 
	C200.649811,357.658051 200.649811,363.706970 200.649811,369.769165 
	C203.399002,369.769165 206.183853,369.769165 209.683929,369.775116 
	C211.097351,367.819977 212.510773,365.864868 213.924179,363.909729 
	C211.917618,362.512329 209.911072,361.114960 207.475739,359.359009 
	C206.876114,359.572876 206.276474,359.786743 205.676849,360.000610 
	C206.430435,360.341797 207.184021,360.683014 208.708496,361.096344 
M268.013184,348.743866 
	C270.103851,348.541290 272.194550,348.338684 274.285217,348.136108 
	C274.247406,347.880676 274.209595,347.625214 274.171783,347.369781 
	C271.776703,347.660553 269.381592,347.951355 266.111511,347.939240 
	C265.756287,348.631042 265.100830,349.319550 265.093262,350.015137 
	C265.031799,355.678650 265.121765,361.343658 265.082489,367.007660 
	C265.076416,367.880524 264.646118,368.750458 264.355072,369.833618 
	C265.485229,369.833618 266.570099,369.833618 267.392975,369.833618 
	C267.595062,366.469238 267.789886,363.226349 268.877380,360.065399 
	C270.883179,359.961090 272.889008,359.856750 274.894806,359.752441 
	C274.880554,359.285706 274.866302,358.819000 274.852051,358.352295 
	C272.393616,358.114380 269.935211,357.876495 267.460968,356.801819 
	C267.412140,354.276428 267.363312,351.751068 268.013184,348.743866 
M146.775452,360.177307 
	C149.399353,363.358490 152.023254,366.539642 154.647156,369.720825 
	C155.115463,369.311737 155.583771,368.902649 156.052078,368.493530 
	C154.836288,366.839325 153.440964,365.283386 152.464279,363.498352 
	C151.744736,362.183319 151.572220,360.568970 151.802826,358.900879 
	C152.444855,356.212646 154.406784,352.885498 153.474411,350.959412 
	C150.962524,345.770630 145.675583,348.574615 141.552689,347.981140 
	C141.552689,355.473022 141.552689,362.662811 141.552689,370.094299 
	C142.684891,369.940155 143.875061,369.778107 144.283188,369.722534 
	C144.283188,366.178772 144.283188,363.100525 144.902893,360.034882 
	C145.314911,360.005768 145.726929,359.976654 146.775452,360.177307 
M286.269226,362.335754 
	C291.456970,362.056549 293.507935,364.010254 293.986969,369.738129 
	C295.297394,369.738129 296.608337,369.738129 297.826202,369.738129 
	C294.821228,363.322174 291.935913,357.161713 288.696075,350.244293 
	C287.436951,353.380554 286.580566,355.513672 285.814484,357.774567 
	C285.814484,357.774567 285.672882,357.708771 285.191498,358.123169 
	C284.740387,359.297150 284.289276,360.471100 283.326080,362.124664 
	C282.055237,364.682831 280.784393,367.241028 279.513550,369.799225 
	C279.910889,370.082825 280.308228,370.366455 280.705566,370.650055 
	C281.509583,369.563110 282.354187,368.503479 283.107391,367.382416 
	C284.072296,365.946228 284.963593,364.460602 286.269226,362.335754 
M324.326080,362.124664 
	C323.055237,364.682831 321.784363,367.241028 320.513519,369.799194 
	C320.910858,370.082825 321.308228,370.366455 321.705566,370.650055 
	C322.509583,369.563110 323.354187,368.503479 324.107391,367.382416 
	C325.072296,365.946228 325.963593,364.460602 327.269257,362.335724 
	C333.097229,361.546722 334.694458,365.249359 335.202515,370.104858 
	C336.634552,370.027222 337.905670,369.958313 338.950836,369.901642 
	C335.937408,363.525574 332.981842,357.272003 329.677826,350.281036 
	C328.429016,353.395233 327.576599,355.520996 326.814484,357.774567 
	C326.814484,357.774567 326.672882,357.708771 326.191528,358.123169 
	C325.740417,359.297150 325.289307,360.471130 324.326080,362.124664 
M223.269226,362.335724 
	C229.097290,361.546570 230.694382,365.249390 231.202591,370.105103 
	C232.632874,370.027466 233.904968,369.958405 234.951126,369.901611 
	C231.937546,363.525452 228.981934,357.271942 225.677765,350.280945 
	C224.429764,353.393280 223.576981,355.520020 222.814529,357.774597 
	C222.814529,357.774597 222.672882,357.708801 222.191483,358.123138 
	C221.740372,359.297119 221.289261,360.471100 220.326096,362.124664 
	C219.055191,364.682831 217.784286,367.241028 216.513397,369.799194 
	C216.910767,370.082825 217.308136,370.366455 217.705505,370.650085 
	C218.509521,369.563141 219.354172,368.503540 220.107361,367.382446 
	C221.072266,365.946228 221.963577,364.460602 223.269226,362.335724 
M183.191498,358.123138 
	C182.740372,359.297119 182.289261,360.471100 181.326126,362.124695 
	C180.055191,364.682861 178.784271,367.241028 177.513351,369.799194 
	C177.903198,370.092957 178.293045,370.386688 178.682907,370.680450 
	C179.494461,369.583435 180.346756,368.513763 181.107315,367.382477 
	C182.072662,365.946564 182.963577,364.460632 184.269226,362.335724 
	C190.097290,361.546570 191.694382,365.249390 192.202576,370.105072 
	C193.632874,370.027435 194.904953,369.958405 195.950989,369.901611 
	C192.937500,363.525482 189.981934,357.271942 186.677826,350.280914 
	C185.429794,353.393311 184.576996,355.520020 183.814529,357.774597 
	C183.814529,357.774597 183.672882,357.708801 183.191498,358.123138 
M357.809326,352.270294 
	C356.536438,352.179260 355.263550,352.088257 353.638000,351.219513 
	C350.190521,351.219513 346.743042,351.219513 343.677673,351.219513 
	C343.677673,357.514496 343.677673,363.604614 343.677673,370.402985 
	C347.641693,369.963104 351.747925,369.507446 356.314667,369.188965 
	C356.878754,368.871826 357.442841,368.554688 358.722076,368.061707 
	C364.612091,363.528229 364.259735,355.996063 357.809326,352.270294 
M285.240448,202.500488 
	C285.240448,215.281143 285.240448,228.061798 285.240448,241.313828 
	C274.454437,241.313828 264.170715,241.315201 253.886993,241.313446 
	C243.145340,241.311615 240.276978,238.852936 238.671570,228.948639 
	C236.902634,228.106354 235.163773,227.823181 234.344116,226.802139 
	C227.627228,218.434845 221.081482,209.930145 214.514450,201.506500 
	C214.140701,201.697388 214.543884,201.342743 214.984329,201.288040 
	C230.064575,199.414108 239.088364,189.949326 244.565948,176.780243 
	C253.784668,154.616791 244.621689,130.851868 224.010696,123.584557 
	C218.477371,121.633537 212.308777,120.821075 206.407150,120.701309 
	C188.253586,120.332893 170.088058,120.541992 151.927261,120.572044 
	C150.836731,120.573845 149.746872,120.972313 148.656693,121.186203 
	C149.604980,122.484978 150.479477,122.756905 151.371277,122.837494 
	C159.710220,123.591110 164.930283,128.802887 164.949310,137.107666 
	C165.038223,175.928589 165.031357,214.749893 164.954468,253.570862 
	C164.938431,261.671875 159.979477,266.831207 151.864548,267.854950 
	C150.758469,267.994507 149.672180,268.290894 148.576721,268.514648 
	C148.635757,268.807922 148.694778,269.101196 148.753815,269.394470 
	C164.180923,269.394470 179.608047,269.394470 196.276352,269.394470 
	C194.709290,268.425934 194.345535,268.031464 193.932571,267.970581 
	C182.091385,266.224274 178.952698,262.595642 178.951981,250.567413 
	C178.949600,211.413071 178.951050,172.258728 178.951035,133.104385 
	C178.951035,131.192413 178.951019,129.280441 178.951019,127.644127 
	C188.695526,127.644127 197.686844,127.283966 206.637146,127.736038 
	C217.620880,128.290833 224.773163,134.712189 228.745026,144.564133 
	C231.975891,152.578049 232.865845,161.051285 231.127487,169.578705 
	C228.646927,181.746872 221.530487,190.062546 209.325943,192.954498 
	C203.242249,194.396057 196.815582,194.407028 190.537949,195.000717 
	C189.055923,195.140884 187.549347,195.021484 186.054062,195.021484 
	C185.882126,195.512482 185.710190,196.003479 185.538254,196.494476 
	C199.237000,199.133972 204.571777,210.648315 211.629990,220.222214 
	C218.937668,230.134506 225.750961,240.410843 233.035385,250.340988 
	C235.346741,253.491837 237.695129,256.344360 237.070206,260.555298 
	C237.027649,260.842163 237.595123,261.219604 238.219910,261.957886 
	C238.769302,260.421936 239.175919,259.285126 239.661011,257.928894 
	C252.364075,269.204498 266.905029,271.313934 282.791412,268.835236 
	C268.510529,267.541382 259.343658,258.796753 250.747574,248.313980 
	C262.667389,248.313980 273.884888,248.313980 284.914001,248.313980 
	C284.914001,270.285858 284.914001,291.873016 284.914001,313.776917 
	C269.628937,313.776917 254.664108,313.959229 239.707672,313.684418 
	C233.974182,313.579041 230.507965,309.456604 229.955170,303.590698 
	C229.845505,302.426971 229.612427,301.274933 229.436264,300.117493 
	C229.070770,300.144470 228.705276,300.171448 228.339783,300.198425 
	C228.339783,308.053680 228.339783,315.908905 228.339783,323.658081 
	C257.228119,317.432312 286.550720,322.157776 315.566345,319.480103 
	C314.917328,318.699432 314.238739,318.281403 313.519714,318.193146 
	C302.531128,316.844421 299.215942,313.099792 299.214539,301.935089 
	C299.211426,276.942963 299.213287,251.950821 299.213623,226.958679 
	C299.213776,214.129379 299.135864,201.299438 299.242584,188.471024 
	C299.318604,179.333481 304.041260,174.193207 312.926910,173.115219 
	C313.892303,172.998108 314.824280,172.605530 315.771790,172.340714 
	C315.717743,172.045456 315.663696,171.750198 315.609650,171.454941 
	C300.108246,171.454941 284.606812,171.454941 269.105408,171.454941 
	C270.062561,172.774048 271.181763,173.018417 272.313568,173.167099 
	C280.573120,174.252213 285.102173,179.232269 285.224487,187.505463 
	C285.293427,192.169647 285.239197,196.835678 285.240448,202.500488 
M239.668884,368.914673 
	C239.563034,369.043274 239.432068,369.159668 239.361053,369.305267 
	C239.320404,369.388641 239.376862,369.615417 239.390213,369.615448 
	C243.250870,369.629333 247.111572,369.628998 250.972275,369.628998 
	C250.958069,369.275757 250.943863,368.922516 250.929672,368.569275 
	C248.117172,368.569275 245.304672,368.569275 242.598907,368.569275 
	C242.598907,362.598816 242.598907,356.887146 242.598907,350.961945 
	C241.373047,351.070129 240.261917,351.168152 239.983322,351.192749 
	C239.983322,357.056213 239.983322,362.632538 239.668884,368.914673 
M162.974976,353.569092 
	C162.974976,358.939697 162.974976,364.310303 162.974976,369.340179 
	C166.204681,369.340179 170.044296,369.340179 173.883896,369.340179 
	C173.865509,369.090118 173.847122,368.840088 173.828720,368.590027 
	C171.013031,368.739014 168.197327,368.888000 165.268860,369.042969 
	C165.268860,366.122803 165.268860,363.721954 165.268860,360.883972 
	C167.632996,360.883972 169.742798,360.883972 171.852615,360.883972 
	C171.861801,360.582916 171.870987,360.281830 171.880157,359.980774 
	C169.700378,359.980774 167.520599,359.980774 165.266815,359.980774 
	C165.266815,357.113678 165.266815,354.713226 165.266815,351.823792 
	C167.790192,351.823792 170.064377,351.823792 172.338562,351.823792 
	C169.363159,351.022736 166.406158,350.986664 163.454788,351.098785 
	C163.243912,351.106812 163.074280,352.200623 162.974976,353.569092 
M306.064362,355.097107 
	C305.579437,353.789246 305.094482,352.481415 304.620728,351.203796 
	C303.231812,351.203796 301.859375,351.203796 300.644470,351.203796 
	C304.163544,357.061493 310.387512,361.731781 307.050293,370.148376 
	C308.616913,369.947144 309.790344,369.796387 310.044952,369.763702 
	C310.238312,366.110382 310.403198,362.995514 310.568054,359.880646 
	C310.310791,360.126953 310.053558,360.373230 309.796295,360.619507 
	C308.667664,359.005096 307.539032,357.390686 306.064362,355.097107 
M211.488464,355.058472 
	C210.685638,353.841370 209.882797,352.624237 209.079956,351.407135 
	C208.627777,351.722015 208.175598,352.036896 207.723419,352.351807 
	C208.346680,353.974091 208.969940,355.596405 209.779236,357.702942 
	C210.514969,356.647552 210.869171,356.139496 211.488464,355.058472 
z"/>
<path fill="#FAD04F" opacity="1.000000" stroke="none" 
	d="
M285.240448,202.000671 
	C285.239197,196.835678 285.293427,192.169647 285.224487,187.505463 
	C285.102173,179.232269 280.573120,174.252213 272.313568,173.167099 
	C271.181763,173.018417 270.062561,172.774048 269.105408,171.454941 
	C284.606812,171.454941 300.108246,171.454941 315.609650,171.454941 
	C315.663696,171.750198 315.717743,172.045456 315.771790,172.340714 
	C314.824280,172.605530 313.892303,172.998108 312.926910,173.115219 
	C304.041260,174.193207 299.318604,179.333481 299.242584,188.471024 
	C299.135864,201.299438 299.213776,214.129379 299.213623,226.958679 
	C299.213287,251.950821 299.211426,276.942963 299.214539,301.935089 
	C299.215942,313.099792 302.531128,316.844421 313.519714,318.193146 
	C314.238739,318.281403 314.917328,318.699432 315.566345,319.480103 
	C286.550720,322.157776 257.228119,317.432312 228.339783,323.658081 
	C228.339783,315.908905 228.339783,308.053680 228.339783,300.198425 
	C228.705276,300.171448 229.070770,300.144470 229.436264,300.117493 
	C229.612427,301.274933 229.845505,302.426971 229.955170,303.590698 
	C230.507965,309.456604 233.974182,313.579041 239.707672,313.684418 
	C254.664108,313.959229 269.628937,313.776917 284.914001,313.776917 
	C284.914001,291.873016 284.914001,270.285858 284.914001,248.313980 
	C273.884888,248.313980 262.667389,248.313980 250.747574,248.313980 
	C259.343658,258.796753 268.510529,267.541382 282.791412,268.835236 
	C266.905029,271.313934 252.364075,269.204498 239.661011,257.928894 
	C239.175919,259.285126 238.769302,260.421936 238.219910,261.957886 
	C237.595123,261.219604 237.027649,260.842163 237.070206,260.555298 
	C237.695129,256.344360 235.346741,253.491837 233.035385,250.340988 
	C225.750961,240.410843 218.937668,230.134506 211.629990,220.222214 
	C204.571777,210.648315 199.237000,199.133972 185.538254,196.494476 
	C185.710190,196.003479 185.882126,195.512482 186.054062,195.021484 
	C187.549347,195.021484 189.055923,195.140884 190.537949,195.000717 
	C196.815582,194.407028 203.242249,194.396057 209.325943,192.954498 
	C221.530487,190.062546 228.646927,181.746872 231.127487,169.578705 
	C232.865845,161.051285 231.975891,152.578049 228.745026,144.564133 
	C224.773163,134.712189 217.620880,128.290833 206.637146,127.736038 
	C197.686844,127.283966 188.695526,127.644127 178.951019,127.644127 
	C178.951019,129.280441 178.951035,131.192413 178.951035,133.104385 
	C178.951050,172.258728 178.949600,211.413071 178.951981,250.567413 
	C178.952698,262.595642 182.091385,266.224274 193.932571,267.970581 
	C194.345535,268.031464 194.709290,268.425934 196.276352,269.394470 
	C179.608047,269.394470 164.180923,269.394470 148.753815,269.394470 
	C148.694778,269.101196 148.635757,268.807922 148.576721,268.514648 
	C149.672180,268.290894 150.758469,267.994507 151.864548,267.854950 
	C159.979477,266.831207 164.938431,261.671875 164.954468,253.570862 
	C165.031357,214.749893 165.038223,175.928589 164.949310,137.107666 
	C164.930283,128.802887 159.710220,123.591110 151.371277,122.837494 
	C150.479477,122.756905 149.604980,122.484978 148.656693,121.186203 
	C149.746872,120.972313 150.836731,120.573845 151.927261,120.572044 
	C170.088058,120.541992 188.253586,120.332893 206.407150,120.701309 
	C212.308777,120.821075 218.477371,121.633537 224.010696,123.584557 
	C244.621689,130.851868 253.784668,154.616791 244.565948,176.780243 
	C239.088364,189.949326 230.064575,199.414108 214.984329,201.288040 
	C214.543884,201.342743 214.140701,201.697388 214.514450,201.506500 
	C221.081482,209.930145 227.627228,218.434845 234.344116,226.802139 
	C235.163773,227.823181 236.902634,228.106354 238.671570,228.948639 
	C240.276978,238.852936 243.145340,241.311615 253.886993,241.313446 
	C264.170715,241.315201 274.454437,241.313828 285.240448,241.313828 
	C285.240448,228.061798 285.240448,215.281143 285.240448,202.000671 
z"/>
<path fill="#080602" opacity="1.000000" stroke="none" 
	d="
M353.990662,351.997223 
	C355.263550,352.088257 356.536438,352.179260 357.594360,352.679871 
	C361.087341,358.536682 361.163483,362.055603 357.763702,366.890961 
	C357.579315,367.153168 357.913910,367.780304 358.006927,368.237549 
	C357.442841,368.554688 356.878754,368.871826 355.639893,369.086914 
	C352.211609,368.984894 349.458099,368.984894 346.476196,368.984894 
	C346.476196,363.161499 346.476196,357.809052 346.476196,351.997223 
	C349.134735,351.997223 351.562714,351.997223 353.990662,351.997223 
z"/>
<path fill="#D4B042" opacity="1.000000" stroke="none" 
	d="
M181.838165,361.645081 
	C182.289261,360.471100 182.740372,359.297119 183.537628,358.179657 
	C184.216049,358.599976 184.548355,358.963776 184.880646,359.327545 
	C185.042603,359.141083 185.204559,358.954590 185.366501,358.768127 
	C184.819077,358.394318 184.271637,358.020538 183.724197,357.646759 
	C184.576996,355.520020 185.429794,353.393311 186.677826,350.280914 
	C189.981934,357.271942 192.937500,363.525482 195.950989,369.901611 
	C194.904953,369.958405 193.632874,370.027435 192.202576,370.105072 
	C191.694382,365.249390 190.097290,361.546570 183.768478,362.590576 
	C182.791199,362.445312 182.314682,362.045197 181.838165,361.645081 
z"/>
<path fill="#D4B042" opacity="1.000000" stroke="none" 
	d="
M222.724197,357.646759 
	C223.576981,355.520020 224.429764,353.393280 225.677765,350.280945 
	C228.981934,357.271942 231.937546,363.525452 234.951126,369.901611 
	C233.904968,369.958405 232.632874,370.027466 231.202591,370.105103 
	C230.694382,365.249390 229.097290,361.546570 222.768478,362.590576 
	C221.791199,362.445312 221.314682,362.045197 220.838150,361.645081 
	C221.289261,360.471100 221.740372,359.297119 222.537613,358.179657 
	C223.216049,358.599976 223.548355,358.963776 223.880661,359.327545 
	C224.042603,359.141083 224.204559,358.954590 224.366516,358.768097 
	C223.819077,358.394318 223.271637,358.020538 222.724197,357.646759 
z"/>
<path fill="#D4B042" opacity="1.000000" stroke="none" 
	d="
M326.724182,357.646759 
	C327.576599,355.520996 328.429016,353.395233 329.677826,350.281036 
	C332.981842,357.272003 335.937408,363.525574 338.950836,369.901642 
	C337.905670,369.958313 336.634552,370.027222 335.202515,370.104858 
	C334.694458,365.249359 333.097229,361.546722 326.768494,362.590576 
	C325.791168,362.445312 325.314667,362.045197 324.838196,361.645081 
	C325.289307,360.471130 325.740417,359.297150 326.537628,358.179688 
	C327.216034,358.599976 327.548370,358.963776 327.880707,359.327545 
	C328.042633,359.141083 328.204590,358.954620 328.366516,358.768127 
	C327.819092,358.394348 327.271637,358.020538 326.724182,357.646759 
z"/>
<path fill="#D4B042" opacity="1.000000" stroke="none" 
	d="
M283.838165,361.645081 
	C284.289276,360.471100 284.740387,359.297150 285.537598,358.179688 
	C286.216034,358.599976 286.548370,358.963776 286.880707,359.327576 
	C287.042633,359.141083 287.204590,358.954590 287.366547,358.768127 
	C286.819092,358.394318 286.271637,358.020538 285.724182,357.646759 
	C286.580566,355.513672 287.436951,353.380554 288.696075,350.244293 
	C291.935913,357.161713 294.821228,363.322174 297.826202,369.738129 
	C296.608337,369.738129 295.297394,369.738129 293.986969,369.738129 
	C293.507935,364.010254 291.456970,362.056549 285.768463,362.590576 
	C284.791199,362.445282 284.314667,362.045197 283.838165,361.645081 
z"/>
<path fill="#EFC74B" opacity="1.000000" stroke="none" 
	d="
M144.283188,360.022278 
	C144.283188,363.100525 144.283188,366.178772 144.283188,369.722534 
	C143.875061,369.778107 142.684891,369.940155 141.552689,370.094299 
	C141.552689,362.662811 141.552689,355.473022 141.552689,347.981140 
	C145.675583,348.574615 150.962524,345.770630 153.474411,350.959412 
	C154.406784,352.885498 152.444855,356.212646 151.266968,358.849915 
	C150.493637,358.555542 150.256165,358.312164 150.260742,357.796448 
	C150.654327,355.223633 151.680084,352.389557 150.698181,350.780945 
	C149.812805,349.330383 146.729233,349.221649 144.283188,348.411133 
	C144.283188,353.092194 144.283188,356.557251 144.283188,360.022278 
z"/>
<path fill="#100D05" opacity="1.000000" stroke="none" 
	d="
M144.593048,360.028564 
	C144.283188,356.557251 144.283188,353.092194 144.283188,348.411133 
	C146.729233,349.221649 149.812805,349.330383 150.698181,350.780945 
	C151.680084,352.389557 150.654327,355.223633 149.934326,357.841125 
	C148.290237,358.754608 147.214584,359.351074 146.138947,359.947540 
	C145.726929,359.976654 145.314911,360.005768 144.593048,360.028564 
z"/>
<path fill="#E2BC47" opacity="1.000000" stroke="none" 
	d="
M239.826111,368.561768 
	C239.983322,362.632538 239.983322,357.056213 239.983322,351.192749 
	C240.261917,351.168152 241.373047,351.070129 242.598907,350.961945 
	C242.598907,356.887146 242.598907,362.598816 242.598907,368.569275 
	C245.304672,368.569275 248.117172,368.569275 250.929672,368.569275 
	C250.943863,368.922516 250.958069,369.275757 250.972275,369.628998 
	C247.111572,369.628998 243.250870,369.629333 239.390213,369.615448 
	C239.376862,369.615417 239.320404,369.388641 239.361053,369.305267 
	C239.432068,369.159668 239.563034,369.043274 239.826111,368.561768 
z"/>
<path fill="#F6CD4D" opacity="1.000000" stroke="none" 
	d="
M162.930206,353.179321 
	C163.074280,352.200623 163.243912,351.106812 163.454788,351.098785 
	C166.406158,350.986664 169.363159,351.022736 172.338562,351.823792 
	C170.064377,351.823792 167.790192,351.823792 165.266815,351.823792 
	C165.266815,354.713226 165.266815,357.113678 165.266815,359.980774 
	C167.520599,359.980774 169.700378,359.980774 171.880157,359.980774 
	C171.870987,360.281830 171.861801,360.582916 171.852615,360.883972 
	C169.742798,360.883972 167.632996,360.883972 165.268860,360.883972 
	C165.268860,363.721954 165.268860,366.122803 165.268860,369.042969 
	C168.197327,368.888000 171.013031,368.739014 173.828720,368.590027 
	C173.847122,368.840088 173.865509,369.090118 173.883896,369.340179 
	C170.044296,369.340179 166.204681,369.340179 162.974976,369.340179 
	C162.974976,364.310303 162.974976,358.939697 162.930206,353.179321 
z"/>
<path fill="#E9C249" opacity="1.000000" stroke="none" 
	d="
M306.237366,355.436707 
	C307.539032,357.390686 308.667664,359.005096 309.796295,360.619507 
	C310.053558,360.373230 310.310791,360.126953 310.568054,359.880646 
	C310.403198,362.995514 310.238312,366.110382 310.044952,369.763702 
	C309.790344,369.796387 308.616913,369.947144 307.050293,370.148376 
	C310.387512,361.731781 304.163544,357.061493 300.644470,351.203796 
	C301.859375,351.203796 303.231812,351.203796 304.620728,351.203796 
	C305.094482,352.481415 305.579437,353.789246 306.237366,355.436707 
z"/>
<path fill="#E9C249" opacity="1.000000" stroke="none" 
	d="
M353.814331,351.608368 
	C351.562714,351.997223 349.134735,351.997223 346.476196,351.997223 
	C346.476196,357.809052 346.476196,363.161499 346.476196,368.984894 
	C349.458099,368.984894 352.211609,368.984894 355.409637,369.018341 
	C351.747925,369.507446 347.641693,369.963104 343.677673,370.402985 
	C343.677673,363.604614 343.677673,357.514496 343.677673,351.219513 
	C346.743042,351.219513 350.190521,351.219513 353.814331,351.608368 
z"/>
<path fill="#E9C249" opacity="1.000000" stroke="none" 
	d="
M208.968689,369.769165 
	C206.183853,369.769165 203.399002,369.769165 200.649811,369.769165 
	C200.649811,363.706970 200.649811,357.658051 200.649811,351.209106 
	C201.838654,351.131226 203.403595,351.028748 204.824936,350.935669 
	C201.032349,356.726257 204.045914,362.793121 203.154297,368.932373 
	C205.197296,368.932373 206.661163,368.932373 208.531128,369.147339 
	C208.937225,369.362274 208.968689,369.769165 208.968689,369.769165 
z"/>
<path fill="#E2BC47" opacity="1.000000" stroke="none" 
	d="
M267.984680,359.983429 
	C267.789886,363.226349 267.595062,366.469238 267.392975,369.833618 
	C266.570099,369.833618 265.485229,369.833618 264.355072,369.833618 
	C264.646118,368.750458 265.076416,367.880524 265.082489,367.007660 
	C265.121765,361.343658 265.031799,355.678650 265.093262,350.015137 
	C265.100830,349.319550 265.756287,348.631042 266.564392,348.358765 
	C267.116333,348.927429 267.215393,349.076538 267.314484,349.225677 
	C267.363312,351.751068 267.412140,354.276428 267.432068,357.523682 
	C267.596985,358.824829 267.790833,359.404144 267.984680,359.983429 
z"/>
<path fill="#D7B343" opacity="1.000000" stroke="none" 
	d="
M358.364502,368.149628 
	C357.913910,367.780304 357.579315,367.153168 357.763702,366.890961 
	C361.163483,362.055603 361.087341,358.536682 357.693085,352.930359 
	C364.259735,355.996063 364.612091,363.528229 358.364502,368.149628 
z"/>
<path fill="#D7B343" opacity="1.000000" stroke="none" 
	d="
M146.457199,360.062439 
	C147.214584,359.351074 148.290237,358.754608 149.692291,358.113464 
	C150.256165,358.312164 150.493637,358.555542 150.943542,358.943451 
	C151.572220,360.568970 151.744736,362.183319 152.464279,363.498352 
	C153.440964,365.283386 154.836288,366.839325 156.052078,368.493530 
	C155.583771,368.902649 155.115463,369.311737 154.647156,369.720825 
	C152.023254,366.539642 149.399353,363.358490 146.457199,360.062439 
z"/>
<path fill="#CFAC41" opacity="1.000000" stroke="none" 
	d="
M209.326309,369.772156 
	C208.968689,369.769165 208.937225,369.362274 208.964355,369.160034 
	C211.419907,366.246460 213.193222,363.558777 208.247330,360.735352 
	C207.825623,360.155396 207.865082,359.936462 207.904526,359.717560 
	C209.911072,361.114960 211.917618,362.512329 213.924179,363.909729 
	C212.510773,365.864868 211.097351,367.819977 209.326309,369.772156 
z"/>
<path fill="#CFAC41" opacity="1.000000" stroke="none" 
	d="
M324.582123,361.884888 
	C325.314667,362.045197 325.791168,362.445312 326.577148,362.920837 
	C325.963593,364.460602 325.072296,365.946228 324.107391,367.382416 
	C323.354187,368.503479 322.509583,369.563110 321.705566,370.650055 
	C321.308228,370.366455 320.910858,370.082825 320.513519,369.799194 
	C321.784363,367.241028 323.055237,364.682831 324.582123,361.884888 
z"/>
<path fill="#CFAC41" opacity="1.000000" stroke="none" 
	d="
M283.582123,361.884888 
	C284.314667,362.045197 284.791199,362.445282 285.577148,362.920837 
	C284.963593,364.460602 284.072296,365.946228 283.107391,367.382416 
	C282.354187,368.503479 281.509583,369.563110 280.705566,370.650055 
	C280.308228,370.366455 279.910889,370.082825 279.513550,369.799225 
	C280.784393,367.241028 282.055237,364.682831 283.582123,361.884888 
z"/>
<path fill="#CFAC41" opacity="1.000000" stroke="none" 
	d="
M220.582123,361.884888 
	C221.314682,362.045197 221.791199,362.445312 222.577148,362.920837 
	C221.963577,364.460602 221.072266,365.946228 220.107361,367.382446 
	C219.354172,368.503540 218.509521,369.563141 217.705505,370.650085 
	C217.308136,370.366455 216.910767,370.082825 216.513397,369.799194 
	C217.784286,367.241028 219.055191,364.682831 220.582123,361.884888 
z"/>
<path fill="#CFAC41" opacity="1.000000" stroke="none" 
	d="
M181.582153,361.884888 
	C182.314682,362.045197 182.791199,362.445312 183.577148,362.920837 
	C182.963577,364.460632 182.072662,365.946564 181.107315,367.382477 
	C180.346756,368.513763 179.494461,369.583435 178.682907,370.680450 
	C178.293045,370.386688 177.903198,370.092957 177.513351,369.799194 
	C178.784271,367.241028 180.055191,364.682861 181.582153,361.884888 
z"/>
<path fill="#806A28" opacity="1.000000" stroke="none" 
	d="
M267.663818,348.984772 
	C267.215393,349.076538 267.116333,348.927429 267.001892,348.510254 
	C269.381592,347.951355 271.776703,347.660553 274.171783,347.369781 
	C274.209595,347.625214 274.247406,347.880676 274.285217,348.136108 
	C272.194550,348.338684 270.103851,348.541290 267.663818,348.984772 
z"/>
<path fill="#100D05" opacity="1.000000" stroke="none" 
	d="
M211.355927,355.344940 
	C210.869171,356.139496 210.514969,356.647552 209.779236,357.702942 
	C208.969940,355.596405 208.346680,353.974091 207.723419,352.351807 
	C208.175598,352.036896 208.627777,351.722015 209.079956,351.407135 
	C209.882797,352.624237 210.685638,353.841370 211.355927,355.344940 
z"/>
<path fill="#806A28" opacity="1.000000" stroke="none" 
	d="
M268.431030,360.024414 
	C267.790833,359.404144 267.596985,358.824829 267.439972,357.942078 
	C269.935211,357.876495 272.393616,358.114380 274.852051,358.352295 
	C274.866302,358.819000 274.880554,359.285706 274.894806,359.752441 
	C272.889008,359.856750 270.883179,359.961090 268.431030,360.024414 
z"/>
<path fill="#100D05" opacity="1.000000" stroke="none" 
	d="
M207.690125,359.538269 
	C207.865082,359.936462 207.825623,360.155396 207.861877,360.699280 
	C207.184021,360.683014 206.430435,360.341797 205.676849,360.000610 
	C206.276474,359.786743 206.876114,359.572876 207.690125,359.538269 
z"/>
<path fill="#CFAC41" opacity="1.000000" stroke="none" 
	d="
M183.769363,357.710693 
	C184.271637,358.020538 184.819077,358.394318 185.366501,358.768127 
	C185.204559,358.954590 185.042603,359.141083 184.880646,359.327545 
	C184.548355,358.963776 184.216049,358.599976 183.778320,357.972473 
	C183.672882,357.708801 183.814529,357.774597 183.769363,357.710693 
z"/>
<path fill="#CFAC41" opacity="1.000000" stroke="none" 
	d="
M222.769379,357.710693 
	C223.271637,358.020538 223.819077,358.394318 224.366516,358.768097 
	C224.204559,358.954590 224.042603,359.141083 223.880661,359.327545 
	C223.548355,358.963776 223.216049,358.599976 222.778320,357.972473 
	C222.672882,357.708801 222.814529,357.774597 222.769379,357.710693 
z"/>
<path fill="#CFAC41" opacity="1.000000" stroke="none" 
	d="
M326.769348,357.710663 
	C327.271637,358.020538 327.819092,358.394348 328.366516,358.768127 
	C328.204590,358.954620 328.042633,359.141083 327.880707,359.327545 
	C327.548370,358.963776 327.216034,358.599976 326.778320,357.972473 
	C326.672882,357.708771 326.814484,357.774567 326.769348,357.710663 
z"/>
<path fill="#CFAC41" opacity="1.000000" stroke="none" 
	d="
M285.769348,357.710663 
	C286.271637,358.020538 286.819092,358.394318 287.366547,358.768127 
	C287.204590,358.954590 287.042633,359.141083 286.880707,359.327576 
	C286.548370,358.963776 286.216034,358.599976 285.778320,357.972473 
	C285.672882,357.708771 285.814484,357.774567 285.769348,357.710663 
z"/>
</svg>